<?xml version="1.0" encoding="UTF-8"?>
<svg id="Layer_1" xmlns="http://www.w3.org/2000/svg" version="1.1" viewBox="0 0 1024 1024">
  <!-- Generator: Adobe Illustrator 30.5.1, SVG Export Plug-In . SVG Version: 2.1.4 Build 3)  -->
  <defs>
    <style>
      .st0 {
        fill: #fff;
      }

      .st1 {
        fill: #5462e7;
      }
    </style>
  </defs>
  <rect class="st0" width="1024" height="1024"/>
  <path class="st1" d="M84,812.5c.5,27.8,23.6,48.6,50.2,48.6h515.5c27.2,0,50-21.7,50.2-49.1.2-27.9-4-55-11.5-82.1-28.7-103.7-110.3-188.4-215.4-218.9,57.1-26.9,95.8-77.1,105.8-138.8,5.7-35.2-.3-70.6-15-102.8-15.1-33.1-38.4-59.5-69-78.6-67.4-42.1-154.4-36.1-215.3,14.9-13.3,11.1-24,22.9-33.4,37.6-11.7,18.1-20.6,36.4-26.1,57.3-10.6,40.5-6.6,80.8,10.6,118.9,18.3,40.4,46.3,68.2,86.1,90.1-81.1,21.1-149.6,75.5-190.6,147.2l-17.4,34.8c-15.8,38-25.4,78.8-24.6,121ZM894.5,861.1c25.1,0,45.6-18.5,45.6-43.8,0-62.4-25.9-122.4-67.7-169-20.4-22.7-44.4-40.6-71.1-55.7-19.2-10.9-39.2-17.5-60.4-24,26.9-14.9,49.8-33.6,64.2-59.7l5.6-10.3c40.6-81.5.4-179.8-85.1-210.3-33.9-12.1-68.7-11.8-103.7,1.2,16.2,77.8-.7,149.9-53.8,210.5,35.7,21.2,65.4,47.6,92.2,77.9l26.3,34,28.1,50.8c18.1,40.4,28.7,82.1,32.5,126.2l.6,15.1c.8,20-2.6,38.3-14.2,57.1h161.1ZM0,0h1024v1024H0V0Z"/>
</svg>